# Blender 3.3.1
# www.blender.org
mtllib nav_cube.mtl
o Cube
v -1.840000 0.040000 -0.040000
v 0.060000 -0.060000 -1.940000
v 0.060000 1.940000 0.060000
v 0.060000 -0.060000 0.060000
v -0.040000 0.040000 0.060000
v -0.040000 -0.060000 -0.040000
v -0.040000 0.040000 -0.040000
v -1.940000 -0.060000 0.060000
v -0.040000 1.940000 -0.040000
v -1.940000 0.040000 -0.040000
v -0.040000 0.040000 -1.940000
v 0.060000 1.940000 -0.040000
v 0.060000 0.040000 -1.940000
v 0.060000 0.040000 -0.040000
v -0.040000 1.940000 0.060000
v -1.940000 0.040000 0.060000
v -1.940000 -0.060000 -0.040000
v -0.040000 -0.060000 -1.940000
v 0.060000 -0.060000 -0.039942
v -0.039965 -0.060000 0.060000
vn -0.0000 1.0000 -0.0000
vn -0.0000 -0.0000 1.0000
vn -1.0000 -0.0000 -0.0000
vn -0.0000 -1.0000 -0.0000
vn 1.0000 -0.0000 -0.0000
vn -0.0000 -0.0000 -1.0000
vt 0.065398 0.666250
vt 0.231648 0.832500
vt 0.804817 0.431098
vt 0.625000 0.750000
vt 0.375000 0.750000
vt 0.387500 0.762500
vt 0.375000 0.750000
vt 0.222898 0.675000
vt 0.231648 0.683750
vt 0.792317 0.668598
vt 0.804817 0.681098
vt 0.222898 0.675000
vt 0.214148 0.666250
vt 0.362500 0.737500
vt 0.375000 0.775000
vt 0.779817 0.681098
vt 0.375000 0.737500
vt 0.222898 0.666250
vt 0.817317 0.681098
vt 0.231648 0.675000
vt 0.222898 0.150000
vt 0.222898 0.850000
vt 0.047898 0.675000
vt 0.637500 0.737500
vt 0.612500 0.775000
vt 0.612500 0.737500
vt 0.231648 0.158750
vt 0.056648 0.666250
vt 0.231648 0.841250
vt 0.817317 0.418598
vt 0.779817 0.443598
vt 0.817317 0.443598
vt 0.625000 0.737500
vt 0.612500 0.762500
vt 0.792317 0.443598
vt 0.817317 0.431098
vt 0.387500 0.737500
vt 0.375000 0.762500
vt 0.792317 0.681098
vt 0.817317 0.668598
vt 0.637500 0.750000
vt 0.625000 0.762500
vt 0.612500 0.750000
vt 0.231648 0.150000
vt 0.056648 0.675000
vt 0.231648 0.850000
vt 0.222898 0.158750
vt 0.222898 0.841250
vt 0.047898 0.666250
vt 0.792317 0.431098
vt 0.804817 0.418598
vt 0.804817 0.443598
vt 0.804817 0.668605
vt 0.375000 0.737507
vt 0.375000 0.762496
vt 0.222898 0.683747
vt 0.214151 0.675000
vt 0.362504 0.750000
s 0
usemtl Material
f 3/4/1 12/33/1 9/24/1 15/41/1
f 5/6/2 20/55/2 4/5/2 3/4/2 15/42/2
f 8/21/3 16/44/3 10/27/3 17/47/3
f 18/50/4 2/3/4 19/53/4 6/10/4
f 14/37/5 12/33/5 3/4/5 4/5/5 19/54/5
f 13/36/6 2/3/6 18/51/6 11/30/6
f 14/38/6 7/15/6 9/25/6 12/34/6
f 11/31/1 7/16/1 14/39/1 13/35/1
f 9/26/3 7/17/3 5/7/3 15/43/3
f 1/1/1 10/28/1 16/45/1 5/8/1 7/18/1
f 18/52/3 6/11/3 7/19/3 11/32/3
f 10/29/6 1/2/6 7/20/6 6/12/6 17/48/6
f 19/53/5 2/3/5 13/36/5 14/40/5
f 20/56/2 5/9/2 16/46/2 8/22/2
f 6/13/4 20/57/4 8/23/4 17/49/4
f 6/14/4 19/54/4 4/5/4 20/58/4
